<svg width="407" height="396" viewBox="0 0 407 396" fill="none" xmlns="http://www.w3.org/2000/svg">
<g clip-path="url(#clip0)">
<path d="M206.051 372.499C280.143 372.499 340.206 312.533 340.206 238.563C340.206 164.592 280.143 104.627 206.051 104.627C131.96 104.627 71.8965 164.592 71.8965 238.563C71.8965 312.533 131.96 372.499 206.051 372.499Z" fill="#F2F2F2"/>
<path d="M187.1 396.183C257.409 396.183 314.406 388.409 314.406 378.82C314.406 369.23 257.409 361.457 187.1 361.457C116.79 361.457 59.7933 369.23 59.7933 378.82C59.7933 388.409 116.79 396.183 187.1 396.183Z" fill="#3F3D56"/>
<path d="M192.138 27.0057C196.855 25.4226 200.056 22.2858 199.286 19.9996C198.516 17.7134 194.068 17.1434 189.35 18.7266C184.633 20.3098 181.432 23.4466 182.202 25.7328C182.972 28.019 187.42 28.5889 192.138 27.0057Z" fill="#3F3D56"/>
<path d="M172.476 42.7719L219.748 21.268C219.748 21.268 299.835 -8.95407 368.346 64.8184C368.346 64.8184 337.641 45.1405 314.368 71.134C314.368 71.134 270.575 59.3053 233.824 102.767C233.824 102.767 176.343 111.457 152.402 141.912C152.402 141.912 125.713 137.815 115.09 171.594C115.038 171.759 114.944 171.908 114.817 172.027C114.691 172.146 114.536 172.23 114.368 172.272C114.199 172.314 114.023 172.312 113.855 172.266C113.688 172.22 113.535 172.133 113.411 172.011C113.264 171.867 113.164 171.682 113.126 171.48C112.128 166.259 100.39 96.6197 172.476 42.7719Z" fill="#FF8A34"/>
<path opacity="0.2" d="M172.476 42.7719L219.748 21.268C219.748 21.268 299.835 -8.95407 368.346 64.8184C368.346 64.8184 337.641 45.1405 314.368 71.134C314.368 71.134 270.575 59.3053 233.824 102.767C233.824 102.767 176.343 111.457 152.402 141.912C152.402 141.912 125.713 137.815 115.09 171.594C115.038 171.759 114.944 171.908 114.817 172.027C114.691 172.146 114.536 172.23 114.368 172.272C114.199 172.314 114.023 172.312 113.855 172.266C113.688 172.22 113.535 172.133 113.411 172.011C113.264 171.867 113.164 171.682 113.126 171.48C112.128 166.259 100.39 96.6197 172.476 42.7719Z" fill="black"/>
<path d="M186.873 131.871L206.557 135.147L213.118 104.03L197.262 97.4797L186.873 131.871Z" fill="#2F2E41"/>
<path d="M213.939 125.593C223.3 125.593 230.889 118.017 230.889 108.671C230.889 99.3244 223.3 91.7478 213.939 91.7478C204.577 91.7478 196.988 99.3244 196.988 108.671C196.988 118.017 204.577 125.593 213.939 125.593Z" fill="#A0616A"/>
<path d="M206.557 118.224C206.557 118.224 208.197 138.968 195.621 140.606C183.045 142.243 206.557 179.364 212.572 178.818C218.586 178.272 229.522 138.422 229.522 138.422C229.522 138.422 215.306 128.596 220.227 119.861L206.557 118.224Z" fill="#A0616A"/>
<path d="M185.506 193.83C185.506 193.83 187.693 209.661 194.254 209.661C200.816 209.661 189.88 191.647 189.88 191.647L185.506 193.83Z" fill="#A0616A"/>
<path d="M281.194 209.661C281.194 209.661 297.597 223.309 295.41 227.676C293.223 232.043 279.006 222.763 277.913 211.845L281.194 209.661Z" fill="#A0616A"/>
<path d="M182.225 262.068L171.836 300.826L160.353 347.773H171.289C171.289 347.773 175.117 333.034 182.225 325.392C182.225 325.392 189.333 313.382 189.333 305.193L206.284 265.343L182.225 262.068Z" fill="#A0616A"/>
<path d="M227.062 264.251L230.342 300.826C230.342 300.826 229.795 327.029 230.342 333.034C230.889 339.039 230.342 347.773 230.342 347.773H240.184C240.184 347.773 249.48 315.565 246.746 298.097L250.573 257.154L227.062 264.251Z" fill="#A0616A"/>
<path d="M213.939 163.806C213.939 163.806 199.207 152.15 203.019 135.869C203.019 135.869 188.24 136.511 182.225 142.516C176.21 148.521 183.865 168.719 183.865 168.719C183.865 168.719 196.988 190.555 194.801 200.381C192.614 210.207 169.102 262.068 176.757 265.343C184.412 268.618 230.889 280.082 254.401 260.976C254.401 260.976 260.416 206.932 236.357 189.463V175.816C236.357 175.816 240.731 171.995 238.544 162.168C238.544 162.168 247.839 145.246 242.372 141.97C236.904 138.695 224.344 133.895 224.344 133.895C224.344 133.895 225.421 158.347 213.939 163.806Z" fill="#2F2E41"/>
<path d="M185.506 142.516C185.506 142.516 178.397 141.424 171.289 151.796C164.181 162.169 145.59 178.545 154.339 186.734C163.087 194.922 186.599 200.381 186.599 200.381L192.067 190.555L168.555 179.091L188.24 164.352L185.506 142.516Z" fill="#2F2E41"/>
<path d="M239.638 142.516C239.638 142.516 247.293 142.516 250.573 151.796C253.854 161.077 272.992 192.739 272.992 192.739L283.928 209.661L276.272 218.396L254.948 194.376L234.717 161.077L239.638 142.516Z" fill="#2F2E41"/>
<path d="M173.476 346.682H158.166L154.885 373.43C154.885 373.43 146.137 387.624 159.26 385.986C172.383 384.348 168.008 369.609 168.008 369.609L171.289 364.15L172.383 375.614L173.476 375.068V362.513C173.476 362.513 179.491 357.054 173.476 346.682Z" fill="#2F2E41"/>
<path d="M242.918 346.682L228.702 345.59L225.968 376.16C225.968 376.16 224.328 387.624 234.17 385.986C244.012 384.348 240.731 375.068 240.731 375.068V358.145L242.918 346.682Z" fill="#2F2E41"/>
<path d="M201.636 91.4748C201.636 91.4748 193.67 94.1258 193.266 104.595C193.224 106.269 193.41 107.942 193.819 109.566C194.267 111.464 194.555 115.548 191.079 120.884C188.752 124.407 186.625 128.059 184.71 131.821L184.685 131.871L193.434 132.963L195.294 118.485C196.196 111.466 198.128 104.618 201.029 98.1604L201.089 98.0256C201.089 98.0256 204.917 105.122 212.572 105.122L209.838 102.393C209.838 102.393 221.867 107.306 226.241 107.306C226.241 107.306 229.522 109.489 226.241 112.765C222.961 116.04 216.399 123.683 220.227 129.688C224.054 135.692 220.773 137.33 220.773 137.33L226.788 134.055L229.522 132.417V134.601L243.739 132.963C243.739 132.963 247.566 132.417 239.364 123.137C239.364 123.137 237.198 119.533 238.146 116.425C238.925 114.063 239.129 111.549 238.743 109.093C236.906 98.8588 229.697 78.5127 201.636 91.4748Z" fill="#2F2E41"/>
<path d="M287.14 226.708C292.55 221.215 286.558 209.839 286.09 208.974L224.298 83.0006C224.109 82.6199 223.777 82.3293 223.374 82.1925C222.971 82.0557 222.531 82.0838 222.148 82.2706C221.766 82.4574 221.474 82.7878 221.335 83.1894C221.196 83.591 221.223 84.0311 221.408 84.4134L283.231 210.449L283.248 210.481C283.309 210.593 289.276 221.907 283.962 225.148C278.239 228.641 271.566 222.982 271.499 222.925C271.339 222.786 271.154 222.681 270.953 222.614C270.752 222.547 270.54 222.521 270.329 222.536C270.118 222.551 269.913 222.608 269.723 222.703C269.534 222.797 269.366 222.928 269.228 223.088C269.089 223.248 268.984 223.433 268.918 223.634C268.851 223.834 268.825 224.046 268.841 224.256C268.856 224.467 268.913 224.673 269.009 224.861C269.104 225.05 269.235 225.218 269.396 225.355C269.741 225.653 277.936 232.592 285.64 227.889C286.187 227.558 286.69 227.161 287.14 226.708Z" fill="#3F3D56"/>
<path d="M168.056 33.7393L213.84 12.9123C213.84 12.9123 291.405 -16.3583 357.759 55.0917C357.759 55.0917 328.021 36.0333 305.481 61.2085C305.481 61.2085 263.066 49.7522 227.472 91.8456C227.472 91.8456 171.8 100.262 148.614 129.759C148.614 129.759 121.96 125.666 112.01 160.049L110.634 158.698C110.634 158.698 95.478 87.9543 168.056 33.7393Z" fill="#FF8A34"/>
<path d="M168.282 33.6098C168.282 33.6098 145.864 108.944 148.597 129.688L168.282 33.6098Z" fill="#3F3D56"/>
<path d="M191.975 22.8585C191.975 22.8585 220.227 86.5618 227.335 92.0207L191.975 22.8585Z" fill="#3F3D56"/>
<path d="M213.665 12.8657C213.665 12.8657 286.388 56.5374 305.526 61.4505L213.665 12.8657Z" fill="#3F3D56"/>
<path d="M104.332 375.919C104.2 375.705 101.102 370.539 100.027 359.813C99.0421 349.972 99.6756 333.385 108.292 310.247C124.616 266.414 104.53 231.047 104.325 230.695L105.316 230.121C105.368 230.21 110.551 239.228 113.612 253.586C117.658 272.622 116.185 292.416 109.366 310.646C93.0702 354.404 105.185 375.119 105.309 375.323L104.332 375.919Z" fill="#3F3D56"/>
<path d="M97.9488 228.121C102.06 228.121 105.393 224.794 105.393 220.689C105.393 216.584 102.06 213.257 97.9488 213.257C93.8374 213.257 90.5045 216.584 90.5045 220.689C90.5045 224.794 93.8374 228.121 97.9488 228.121Z" fill="#3F3D56"/>
<path d="M121.427 255.563C125.538 255.563 128.871 252.236 128.871 248.131C128.871 244.026 125.538 240.699 121.427 240.699C117.316 240.699 113.983 244.026 113.983 248.131C113.983 252.236 117.316 255.563 121.427 255.563Z" fill="#3F3D56"/>
<path d="M105.393 273.858C109.504 273.858 112.837 270.53 112.837 266.425C112.837 262.321 109.504 258.993 105.393 258.993C101.282 258.993 97.9488 262.321 97.9488 266.425C97.9488 270.53 101.282 273.858 105.393 273.858Z" fill="#FF8A34"/>
<path d="M124.863 289.294C128.974 289.294 132.307 285.966 132.307 281.861C132.307 277.757 128.974 274.429 124.863 274.429C120.751 274.429 117.418 277.757 117.418 281.861C117.418 285.966 120.751 289.294 124.863 289.294Z" fill="#FF8A34"/>
<path d="M99.6667 313.305C103.778 313.305 107.111 309.978 107.111 305.873C107.111 301.768 103.778 298.441 99.6667 298.441C95.5553 298.441 92.2224 301.768 92.2224 305.873C92.2224 309.978 95.5553 313.305 99.6667 313.305Z" fill="#3F3D56"/>
<path d="M108.829 376.193C108.829 376.193 101.385 357.898 123.717 344.177L108.829 376.193Z" fill="#3F3D56"/>
<path d="M99.6736 375.861C99.6736 375.861 96.2856 356.406 70.0633 356.573L99.6736 375.861Z" fill="#3F3D56"/>
</g>
<defs>
<clipPath id="clip0">
<rect width="407" height="396" fill="white"/>
</clipPath>
</defs>
</svg>
